<svg width="89" height="90" viewBox="0 0 89 90" fill="none" xmlns="http://www.w3.org/2000/svg">
<g clip-path="url(#clip0)">
<path d="M88.2461 74.35C88.2461 82.4392 81.6277 89.0576 73.5384 89.0576H14.7077C6.61846 89.0576 0 82.4392 0 74.35V15.5192C0 7.42998 6.61846 0.811523 14.7077 0.811523H73.5384C81.6277 0.811523 88.2461 7.42998 88.2461 15.5192V74.35Z" fill="white" fill-opacity="0.2"/>
<path d="M23.9793 19.9893H48.9968C53.6109 19.9893 57.3167 21.0419 60.0996 23.1615C62.8825 25.2811 64.2812 28.4678 64.2812 32.7503C64.2812 35.3458 63.6468 37.5664 62.3779 39.4121C61.109 41.2577 59.2921 42.6997 56.9274 43.709V43.8532C60.0996 44.5309 62.5077 46.0305 64.137 48.352C65.7664 50.6879 66.5883 53.6006 66.5883 57.119C66.5883 59.1377 66.2278 61.0266 65.5069 62.7713C64.7859 64.5305 63.6612 66.0445 62.1183 67.3134C60.5755 68.5823 58.6144 69.5916 56.2064 70.3415C53.7984 71.0913 50.9434 71.4662 47.6269 71.4662H23.9793V19.9893ZM32.9913 41.5461H47.699C49.8619 41.5461 51.6643 40.9405 53.1063 39.7004C54.5482 38.4604 55.2692 36.7012 55.2692 34.3941C55.2692 31.7987 54.6203 29.9674 53.3226 28.9148C52.0248 27.8622 50.1503 27.3287 47.699 27.3287H32.9913V41.5461ZM32.9913 64.1123H48.9247C51.6643 64.1123 53.7984 63.4058 55.298 61.9783C56.812 60.5652 57.5762 58.5465 57.5762 55.951C57.5762 53.3988 56.8264 51.4522 55.298 50.0679C53.7696 48.6837 51.6643 48.0204 48.9247 48.0204H32.9913V64.1123Z" fill="white"/>
</g>
<defs>
<clipPath id="clip0">
<rect width="88.2461" height="88.2461" fill="white" transform="translate(0 0.811523)"/>
</clipPath>
</defs>
</svg>
