<svg width="439" height="52" viewBox="0 0 439 52" fill="none" xmlns="http://www.w3.org/2000/svg">
<path opacity="0.2" d="M228.769 47.9323L213.693 51.9916L198.617 47.9323L195.139 10.2435H232.248L228.769 47.9323Z" fill="white"/>
<path d="M205.137 4.70623V2.46299H208.41V0.00835991H202.683V6.94614H208.41V4.70623H205.137ZM214.298 2.46299H216.586V0.00835991H210.858V2.46299C211.624 3.22933 212.024 3.59612 213.132 4.70446C212.484 4.70446 210.858 4.70678 210.858 4.70667V6.94614H216.586V4.70623L214.298 2.46299ZM222.416 2.46299H224.704V0.00835991H218.976V2.46299C219.742 3.22933 220.142 3.59612 221.25 4.70446C220.603 4.70446 218.976 4.70678 218.976 4.70667V6.94614H224.704V4.70623L222.416 2.46299Z" fill="white"/>
<path d="M213.68 22.72L202.89 27.2138L203.247 31.6629L213.68 27.2025L224.777 22.4579L225.237 17.9066L213.68 22.72Z" fill="white"/>
<path d="M202.89 27.2137L203.247 31.6629L213.68 27.2025V22.72L202.89 27.2137Z" fill="white"/>
<path d="M225.237 17.9067L213.68 22.72V27.2025L224.777 22.4579L225.237 17.9067Z" fill="white"/>
<path d="M202.906 27.2137L203.264 31.6629L219.271 31.7139L218.913 37.6461L213.646 39.1289L208.582 37.8505L208.276 34.1684H203.571L204.185 41.2768L213.697 44.0893L223.157 41.3278L224.385 27.2137H202.906Z" fill="white"/>
<path d="M213.68 27.2137H202.89L203.247 31.6629L213.68 31.6962V27.2137ZM213.68 39.1148L213.629 39.1291L208.566 37.8506L208.259 34.1685H203.554L204.168 41.2769L213.68 44.0895V39.1148Z" fill="white"/>
<path d="M201.918 17.9067H225.237L224.777 22.458H202.48L201.918 17.9067Z" fill="white"/>
<path opacity="0.05" d="M213.68 17.9067H201.918L202.48 22.458H213.68V17.9067Z" fill="white"/>
<path d="M47 42.1667C47 46.475 43.475 50 39.1667 50H7.83333C3.525 50 0 46.475 0 42.1667V10.8333C0 6.525 3.525 3 7.83333 3H39.1667C43.475 3 47 6.525 47 10.8333V42.1667Z" fill="white" fill-opacity="0.2"/>
<path d="M12.7714 13.2141H26.0957C28.5532 13.2141 30.5269 13.7747 32.0091 14.9036C33.4913 16.0325 34.2362 17.7297 34.2362 20.0106C34.2362 21.393 33.8983 22.5757 33.2225 23.5587C32.5467 24.5417 31.579 25.3096 30.3196 25.8472V25.924C32.0091 26.285 33.2916 27.0837 34.1594 28.3201C35.0272 29.5642 35.465 31.1155 35.465 32.9894C35.465 34.0645 35.273 35.0706 34.889 35.9998C34.505 36.9368 33.906 37.7431 33.0843 38.419C32.2625 39.0948 31.2181 39.6324 29.9356 40.0317C28.6531 40.431 27.1325 40.6307 25.3661 40.6307H12.7714V13.2141ZM17.5712 24.6953H25.4045C26.5565 24.6953 27.5165 24.3727 28.2844 23.7123C29.0524 23.0518 29.4364 22.1149 29.4364 20.8861C29.4364 19.5038 29.0908 18.5284 28.3996 17.9678C27.7085 17.4072 26.7101 17.123 25.4045 17.123H17.5712V24.6953ZM17.5712 36.7141H26.0573C27.5165 36.7141 28.6531 36.3377 29.4518 35.5775C30.2581 34.8248 30.6652 33.7497 30.6652 32.3673C30.6652 31.008 30.2658 29.9712 29.4518 29.234C28.6377 28.4967 27.5165 28.1435 26.0573 28.1435H17.5712V36.7141Z" fill="white"/>
<path opacity="0.2" d="M137.797 10.1895L134.45 47.6782L119.408 51.8484L104.407 47.684L101.064 10.1895H137.797Z" fill="white"/>
<path d="M112.925 22.4523H119.43V17.8538H107.899L108.009 19.0875L109.14 31.7599H119.43V27.1613H113.345L112.925 22.4523ZM113.961 34.0592H109.345L109.989 41.2796L119.409 43.8945L119.43 43.8887V39.1043L119.41 39.1096L114.289 37.7267L113.961 34.0592Z" fill="white"/>
<path d="M104.482 0H106.819V2.30885H108.956V0H111.293V6.99178H108.956V4.65053H106.819V6.99178H104.482V0H104.482ZM114.366 2.31864H112.309V0H118.762V2.31864H116.704V6.99178H114.367V2.31864H114.367H114.366ZM119.786 0H122.223L123.722 2.45673L125.219 0H127.657V6.99178H125.33V3.52627L123.722 6.01222H123.681L122.073 3.52627V6.99178H119.786V0ZM128.82 0H131.158V4.68077H134.444V6.99178H128.82V0H128.82Z" fill="white"/>
<path d="M119.415 31.7599H125.077L124.543 37.7239L119.414 39.1082V43.8923L128.842 41.2796L128.911 40.5027L129.992 28.3962L130.104 27.1613H119.415V31.7599ZM119.415 22.4411V22.4523H130.522L130.614 21.4188L130.824 19.0875L130.934 17.8538H119.415V22.4413V22.4411Z" fill="white"/>
<g clip-path="url(#clip0)">
<path opacity="0.2" d="M287 4.875H329.613V47.4883H287V4.875Z" fill="white"/>
<path d="M298.205 40.4857L301.466 38.5122C302.095 39.6276 302.667 40.5715 304.04 40.5715C305.356 40.5715 306.186 40.0568 306.186 38.0546V24.4386H310.19V38.1112C310.19 42.2588 307.759 44.1468 304.212 44.1468C301.008 44.1468 299.149 42.4877 298.205 40.4854L298.205 40.4857ZM312.365 40.0566L315.626 38.1688C316.484 39.5705 317.6 40.6002 319.573 40.6002C321.233 40.6002 322.291 39.7706 322.291 38.6264C322.291 37.2534 321.204 36.767 319.373 35.9664L318.372 35.5369C315.483 34.3073 313.566 32.7626 313.566 29.5016C313.566 26.4981 315.855 24.2096 319.43 24.2096C321.976 24.2096 323.807 25.0965 325.123 27.4134L322.005 29.4159C321.318 28.186 320.575 27.6997 319.43 27.6997C318.257 27.6997 317.514 28.4435 317.514 29.4159C317.514 30.6172 318.257 31.1038 319.974 31.8475L320.975 32.2765C324.379 33.7355 326.295 35.2228 326.295 38.5693C326.295 42.1738 323.463 44.1473 319.659 44.1473C315.94 44.1473 313.538 42.3739 312.365 40.0568" fill="white"/>
</g>
<g clip-path="url(#clip1)">
<path d="M430.845 29.0288C428.941 29.0395 427.293 29.4943 425.911 30.1715C425.401 29.1665 424.89 28.2883 424.805 27.6324C424.71 26.8707 424.593 26.4051 424.71 25.4954C424.827 24.5855 425.358 23.2948 425.358 23.189C425.348 23.0938 425.241 22.6283 424.146 22.6177C423.051 22.6071 422.105 22.8293 421.998 23.1149C421.892 23.4006 421.679 24.0565 421.541 24.7336C421.35 25.728 419.351 29.251 418.213 31.1024C417.841 30.383 417.522 29.7482 417.458 29.2403C417.363 28.4787 417.246 28.0131 417.363 27.1034C417.48 26.1934 418.011 24.9028 418.011 24.797C418.001 24.7018 417.894 24.2363 416.799 24.2258C415.704 24.2152 414.758 24.4373 414.652 24.723C414.545 25.0086 414.428 25.6857 414.194 26.3416C413.971 26.9976 411.313 32.8797 410.622 34.4137C410.271 35.1966 409.963 35.8208 409.739 36.244C409.516 36.6672 409.729 36.2757 409.707 36.318C409.516 36.6777 409.41 36.8788 409.41 36.8788V36.8894C409.261 37.1539 409.101 37.4077 409.027 37.4077C408.974 37.4077 408.867 36.6989 409.048 35.7257C409.442 33.6838 410.398 30.4995 410.388 30.3831C410.388 30.3302 410.569 29.7694 409.771 29.4838C408.995 29.1982 408.719 29.6743 408.655 29.6743C408.591 29.6743 408.538 29.8435 408.538 29.8435C408.538 29.8435 409.399 26.2572 406.89 26.2572C405.316 26.2572 403.147 27.9605 402.073 29.5157C401.393 29.886 399.947 30.6687 398.416 31.5046C397.831 31.822 397.225 32.1605 396.651 32.4673L396.534 32.3402C393.493 29.1134 387.869 26.8283 388.103 22.4907C388.188 20.9144 388.741 16.7567 398.905 11.7209C407.23 7.59489 413.897 8.72689 415.056 11.2448C416.704 14.8418 411.494 21.528 402.839 22.4907C399.543 22.861 397.81 21.5915 397.374 21.1154C396.917 20.6182 396.853 20.597 396.683 20.6922C396.407 20.8403 396.577 21.2847 396.683 21.5492C396.938 22.2157 398.001 23.4006 399.809 23.993C401.393 24.5114 405.263 24.797 409.941 22.9985C415.183 20.9779 419.277 15.3708 418.075 10.6841C416.852 5.91276 408.9 4.347 401.382 7.00244C396.906 8.58935 392.058 11.0649 388.57 14.3128C384.424 18.1637 383.765 21.528 384.041 22.9245C385.009 27.9074 391.909 31.1553 394.673 33.5568C394.535 33.6308 394.408 33.7048 394.291 33.7684C392.908 34.4454 387.645 37.1856 386.327 40.0842C384.838 43.3638 386.561 45.7232 387.709 46.0405C391.26 47.0244 394.897 45.2577 396.864 42.3483C398.82 39.439 398.586 35.6621 397.682 33.9377L397.65 33.8742L398.735 33.2394C399.437 32.8268 400.128 32.446 400.734 32.1179C400.394 33.0383 400.149 34.128 400.021 35.7149C399.873 37.577 400.638 39.989 401.648 40.9412C402.095 41.3536 402.626 41.3643 402.956 41.3643C404.125 41.3643 404.657 40.4015 405.242 39.2484C405.965 37.8414 406.603 36.2121 406.603 36.2121C406.603 36.2121 405.805 40.6238 407.985 40.6238C408.782 40.6238 409.58 39.5976 409.941 39.0686V39.0792C409.941 39.0792 409.963 39.0474 410.005 38.9734C410.05 38.9077 410.092 38.8407 410.133 38.7725V38.7513C410.452 38.2012 411.164 36.9422 412.227 34.8581C413.599 32.1709 414.917 28.8066 414.917 28.8066C414.917 28.8066 415.045 29.6318 415.438 30.986C415.672 31.7902 416.182 32.6681 416.576 33.5251C416.257 33.9694 416.065 34.2234 416.065 34.2234L416.076 34.234C415.821 34.5725 415.534 34.9324 415.236 35.2919C414.152 36.5826 412.855 38.0533 412.685 38.4765C412.483 38.9736 412.525 39.3439 412.918 39.6402C413.206 39.8518 413.716 39.894 414.258 39.8518C415.236 39.7882 415.917 39.545 416.257 39.3968C416.789 39.2063 417.395 38.9207 417.979 38.4975C419.043 37.7147 419.691 36.6039 419.627 35.1228C419.596 34.3082 419.33 33.5041 419 32.7424C419.096 32.6049 419.192 32.4672 419.287 32.3192C420.967 29.8753 422.264 27.1882 422.264 27.1882C422.264 27.1882 422.392 28.0134 422.785 29.3676C422.987 30.0552 423.391 30.8065 423.753 31.547C422.179 32.8271 421.19 34.3083 420.85 35.2816C420.223 37.0801 420.712 37.8947 421.637 38.0851C422.051 38.1698 422.647 37.9793 423.093 37.7889C423.646 37.6091 424.316 37.3021 424.933 36.8473C425.996 36.0645 427.017 34.9748 426.964 33.5042C426.932 32.8272 426.751 32.1606 426.507 31.5259C427.846 30.9757 429.579 30.6584 431.78 30.9229C436.512 31.473 437.447 34.4141 437.267 35.6413C437.086 36.8686 436.097 37.5456 435.767 37.7572C435.438 37.9582 435.331 38.0323 435.363 38.1803C435.406 38.4026 435.555 38.3919 435.842 38.3497C436.235 38.2861 438.33 37.3447 438.415 35.0808C438.542 32.171 435.767 28.9972 430.845 29.0288ZM394.354 41.2692C392.791 42.9725 390.591 43.6179 389.655 43.0677C388.645 42.4859 389.038 39.9785 390.963 38.1694C392.132 37.0692 393.653 36.0536 394.652 35.4294C394.875 35.2918 395.216 35.0909 395.62 34.8475C395.683 34.8053 395.726 34.784 395.726 34.784C395.8 34.7417 395.885 34.6888 395.971 34.6359C396.683 37.2173 396.002 39.4813 394.354 41.2692ZM405.784 33.5357C405.242 34.8581 404.094 38.2541 403.402 38.0637C402.807 37.905 402.446 35.3342 403.285 32.7951C403.711 31.5149 404.614 29.9915 405.146 29.399C406.007 28.4468 406.943 28.1295 407.177 28.5209C407.453 29.0288 406.124 32.7105 405.784 33.5357ZM415.215 38.0213C414.981 38.1378 414.768 38.2223 414.673 38.159C414.598 38.1167 414.768 37.958 414.768 37.958C414.768 37.958 415.949 36.699 416.416 36.1171C416.682 35.7787 417.001 35.3873 417.341 34.9428V35.0698C417.341 36.5931 415.874 37.6087 415.215 38.0213ZM422.487 36.3709C422.317 36.244 422.339 35.8525 422.913 34.6253C423.136 34.1387 423.646 33.3241 424.529 32.5518C424.635 32.8691 424.699 33.1758 424.688 33.4616C424.678 35.3659 423.317 36.0747 422.487 36.3709Z" fill="white"/>
</g>
<defs>
<clipPath id="clip0">
<rect width="42.6133" height="42.6133" fill="white" transform="translate(287 4.875)"/>
</clipPath>
<clipPath id="clip1">
<rect width="54.4375" height="40.625" fill="white" transform="translate(384 5.6875)"/>
</clipPath>
</defs>
</svg>
