<svg width="82" height="97" viewBox="0 0 82 97" fill="none" xmlns="http://www.w3.org/2000/svg">
<g clip-path="url(#clip0)">
<path d="M13.8669 85.2152C21.4613 87.2676 29.5611 82.8493 31.9468 75.3528L36.2686 61.7722L22.5105 58.0541C14.9161 56.0017 6.81626 60.42 4.4306 67.9165C2.04494 75.413 6.27238 83.1628 13.8669 85.2152Z" fill="#5ECB89"/>
<path d="M13.0743 40.7556C15.4599 33.2591 23.5597 28.8408 31.1542 30.8932L44.9123 34.6114L36.2686 61.7725L22.5105 58.0543C14.9161 56.0019 10.6886 48.2521 13.0743 40.7556Z" fill="#9762F6"/>
<path d="M21.7183 13.5952C24.104 6.09874 32.2038 1.68038 39.7983 3.7328L53.5564 7.45095L44.9127 34.6121L31.1546 30.8939C23.5601 28.8415 19.3327 21.0917 21.7183 13.5952Z" fill="#E25A33"/>
<path d="M53.556 7.4502L67.3141 11.1683C74.9086 13.2208 79.136 20.9706 76.7504 28.4671C74.3647 35.9635 66.2649 40.3819 58.6704 38.3295L44.9123 34.6113L53.556 7.4502Z" fill="#EF7A68"/>
<path d="M68.1067 55.6279C65.721 63.1244 57.6212 67.5428 50.0268 65.4903C42.4323 63.4379 38.2049 55.6881 40.5905 48.1916C42.9762 40.6952 51.076 36.2768 58.6704 38.3292C66.2649 40.3817 70.4924 48.1315 68.1067 55.6279Z" fill="#54BBF7"/>
</g>
<defs>
<clipPath id="clip0">
<rect width="57.018" height="85.51" fill="white" transform="matrix(0.965368 0.260892 -0.303252 0.95291 26.0343 0.0124512)"/>
</clipPath>
</defs>
</svg>
