<svg width="325" height="216" viewBox="0 0 325 216" fill="none" xmlns="http://www.w3.org/2000/svg">
<g clip-path="url(#clip0)">
<path opacity="0.2" d="M315.535 89.9966L287.23 97.6182L258.924 89.9966L252.392 19.2329H322.068L315.535 89.9966Z" fill="white"/>
<path d="M271.165 8.83623V4.62438H277.31V0.015625H266.556V13.0418H277.31V8.83623H271.165ZM288.365 4.62438H292.661V0.015625H281.906V4.62438C283.345 6.06325 284.095 6.75192 286.176 8.83291C284.96 8.83291 281.906 8.83727 281.906 8.83706V13.0418H292.661V8.83623L288.365 4.62438ZM303.608 4.62438H307.904V0.015625H297.148V4.62438C298.587 6.06325 299.338 6.75192 301.419 8.83291C300.203 8.83291 297.148 8.83727 297.148 8.83706V13.0418H307.904V8.83623L303.608 4.62438Z" fill="white"/>
<path d="M287.204 42.6582L266.945 51.0956L267.617 59.4492L287.204 51.0744L308.04 42.1661L308.904 33.6206L287.204 42.6582Z" fill="white"/>
<path d="M266.945 51.0959L267.617 59.4495L287.204 51.0747V42.6584L266.945 51.0959Z" fill="white"/>
<path d="M308.904 33.6213L287.204 42.6587V51.0749L308.04 42.1666L308.904 33.6213Z" fill="white"/>
<path d="M266.976 51.0957L267.648 59.4494L297.702 59.5452L297.03 70.6832L287.14 73.4675L277.634 71.0671L277.058 64.1537H268.224L269.376 77.5002L287.236 82.781L305 77.596L307.304 51.0957H266.976Z" fill="white"/>
<path d="M287.204 51.0957H266.945L267.617 59.4494L287.204 59.5119V51.0957ZM287.204 73.4409L287.108 73.4677L277.603 71.0673L277.027 64.1539H268.193L269.345 77.5004L287.204 82.7812V73.4409Z" fill="white"/>
<path d="M265.121 33.6213H308.904L308.04 42.1668H266.177L265.121 33.6213Z" fill="white"/>
<path opacity="0.05" d="M287.204 33.6213H265.121L266.177 42.1668H287.204V33.6213Z" fill="white"/>
</g>
<g clip-path="url(#clip1)">
<path d="M88.2461 79.35C88.2461 87.4392 81.6277 94.0576 73.5384 94.0576H14.7077C6.61846 94.0576 0 87.4392 0 79.35V20.5192C0 12.43 6.61846 5.81152 14.7077 5.81152H73.5384C81.6277 5.81152 88.2461 12.43 88.2461 20.5192V79.35Z" fill="white" fill-opacity="0.2"/>
<path d="M23.9793 24.9893H48.9968C53.6109 24.9893 57.3167 26.0419 60.0996 28.1615C62.8825 30.2811 64.2812 33.4678 64.2812 37.7503C64.2812 40.3458 63.6468 42.5664 62.3779 44.4121C61.109 46.2577 59.2921 47.6997 56.9274 48.709V48.8532C60.0996 49.5309 62.5077 51.0305 64.137 53.352C65.7664 55.6879 66.5883 58.6006 66.5883 62.119C66.5883 64.1377 66.2278 66.0266 65.5069 67.7713C64.7859 69.5305 63.6612 71.0445 62.1183 72.3134C60.5755 73.5823 58.6144 74.5916 56.2064 75.3415C53.7984 76.0913 50.9434 76.4662 47.6269 76.4662H23.9793V24.9893ZM32.9913 46.5461H47.699C49.8619 46.5461 51.6643 45.9405 53.1063 44.7004C54.5482 43.4604 55.2692 41.7012 55.2692 39.3941C55.2692 36.7987 54.6203 34.9674 53.3226 33.9148C52.0248 32.8622 50.1503 32.3287 47.699 32.3287H32.9913V46.5461ZM32.9913 69.1123H48.9247C51.6643 69.1123 53.7984 68.4058 55.298 66.9783C56.812 65.5652 57.5762 63.5465 57.5762 60.951C57.5762 58.3988 56.8264 56.4522 55.298 55.0679C53.7696 53.6837 51.6643 53.0204 48.9247 53.0204H32.9913V69.1123Z" fill="white"/>
</g>
<g clip-path="url(#clip2)">
<path opacity="0.2" d="M202.665 19.1316L196.382 89.5196L168.139 97.3494L139.973 89.5304L133.697 19.1316H202.665Z" fill="white"/>
<path d="M155.966 42.1559H168.181V33.5217H146.53L146.737 35.8381L148.859 59.6315H168.181V50.9973H156.756L155.966 42.1559ZM157.912 63.9487H149.245L150.455 77.5056L168.141 82.4151L168.181 82.4043V73.4212L168.143 73.4312L158.527 70.8347L157.912 63.9487Z" fill="white"/>
<path d="M140.113 0H144.501V4.33504H148.515V0H152.903V13.1276H148.515V8.73173H144.501V13.1276H140.113V0H140.113ZM158.673 4.35343H154.81V0H166.926V4.35343H163.061V13.1276H158.673V4.35343H158.673H158.673ZM168.849 0H173.424L176.238 4.61269L179.05 0H183.627V13.1276H179.257V6.62084L176.238 11.2884H176.162L173.142 6.62084V13.1276H168.849V0ZM185.81 0H190.199V8.7885H196.37V13.1276H185.81V0H185.81Z" fill="white"/>
<path d="M168.151 59.6315H178.783L177.781 70.8293L168.151 73.4285V82.4111L185.851 77.5056L185.981 76.0468L188.01 53.3159L188.221 50.9973H168.151V59.6315ZM168.151 42.1348V42.1559H189.007L189.18 40.2153L189.573 35.8381L189.78 33.5217H168.151V42.135V42.1348Z" fill="white"/>
</g>
<g clip-path="url(#clip3)">
<path opacity="0.2" d="M55.7909 135.99H135.801V216H55.7909V135.99Z" fill="white"/>
<path d="M76.8285 202.852L82.9512 199.147C84.1325 201.241 85.2071 203.013 87.7846 203.013C90.2552 203.013 91.8132 202.047 91.8132 198.288V172.723H99.3319V198.394C99.3319 206.181 94.767 209.726 88.1068 209.726C82.092 209.726 78.6006 206.611 76.8282 202.852L76.8285 202.852ZM103.416 202.046L109.538 198.502C111.15 201.134 113.244 203.067 116.95 203.067C120.065 203.067 122.052 201.509 122.052 199.361C122.052 196.783 120.011 195.87 116.574 194.367L114.694 193.56C109.27 191.252 105.671 188.351 105.671 182.229C105.671 176.589 109.968 172.292 116.682 172.292C121.461 172.292 124.899 173.958 127.369 178.308L121.515 182.068C120.225 179.758 118.83 178.845 116.681 178.845C114.479 178.845 113.083 180.242 113.083 182.068C113.083 184.323 114.479 185.237 117.701 186.633L119.581 187.439C125.972 190.178 129.571 192.971 129.571 199.254C129.571 206.022 124.254 209.727 117.111 209.727C110.129 209.727 105.617 206.397 103.416 202.047" fill="white"/>
</g>
<g clip-path="url(#clip4)">
<path d="M274.897 180.977C271.324 180.997 268.229 181.851 265.634 183.123C264.676 181.236 263.718 179.587 263.558 178.355C263.378 176.925 263.159 176.051 263.378 174.343C263.598 172.634 264.596 170.211 264.596 170.012C264.576 169.834 264.376 168.96 262.32 168.94C260.264 168.92 258.487 169.337 258.288 169.873C258.088 170.41 257.689 171.641 257.429 172.912C257.07 174.78 253.317 181.394 251.181 184.87C250.482 183.52 249.883 182.328 249.763 181.374C249.584 179.944 249.364 179.07 249.584 177.362C249.803 175.653 250.802 173.23 250.802 173.032C250.782 172.853 250.582 171.979 248.526 171.959C246.47 171.939 244.693 172.356 244.493 172.893C244.294 173.429 244.074 174.7 243.635 175.932C243.216 177.163 238.225 188.207 236.927 191.088C236.268 192.558 235.69 193.73 235.27 194.524C234.851 195.319 235.25 194.584 235.21 194.663C234.851 195.339 234.651 195.716 234.651 195.716V195.736C234.372 196.233 234.073 196.709 233.933 196.709C233.833 196.709 233.633 195.378 233.973 193.551C234.711 189.717 236.508 183.738 236.488 183.52C236.488 183.421 236.827 182.368 235.33 181.831C233.873 181.295 233.354 182.189 233.234 182.189C233.114 182.189 233.014 182.507 233.014 182.507C233.014 182.507 234.631 175.773 229.92 175.773C226.966 175.773 222.893 178.971 220.877 181.891C219.599 182.586 216.884 184.056 214.01 185.626C212.912 186.222 211.774 186.857 210.696 187.433L210.476 187.194C204.767 181.136 194.206 176.845 194.646 168.701C194.805 165.742 195.843 157.935 214.928 148.48C230.559 140.733 243.076 142.859 245.252 147.586C248.346 154.34 238.564 166.894 222.315 168.701C216.126 169.397 212.872 167.013 212.054 166.119C211.195 165.185 211.075 165.146 210.756 165.324C210.237 165.603 210.556 166.437 210.756 166.933C211.235 168.185 213.231 170.41 216.625 171.522C219.599 172.495 226.866 173.032 235.65 169.655C245.492 165.861 253.177 155.333 250.922 146.533C248.626 137.575 233.693 134.635 219.58 139.621C211.175 142.6 202.072 147.249 195.524 153.347C187.738 160.577 186.501 166.894 187.02 169.516C188.837 178.872 201.792 184.97 206.983 189.479C206.723 189.618 206.484 189.757 206.264 189.876C203.669 191.147 193.787 196.292 191.312 201.734C188.517 207.892 191.751 212.322 193.907 212.918C200.575 214.765 207.402 211.448 211.095 205.985C214.768 200.523 214.329 193.432 212.632 190.194L212.572 190.075L214.608 188.883C215.926 188.108 217.224 187.393 218.361 186.777C217.723 188.505 217.264 190.551 217.024 193.531C216.745 197.027 218.182 201.556 220.078 203.343C220.917 204.118 221.915 204.138 222.534 204.138C224.73 204.138 225.728 202.33 226.826 200.165C228.183 197.523 229.381 194.464 229.381 194.464C229.381 194.464 227.884 202.748 231.976 202.748C233.474 202.748 234.971 200.821 235.65 199.828V199.847C235.65 199.847 235.69 199.788 235.769 199.649C235.853 199.526 235.933 199.4 236.009 199.272V199.232C236.608 198.199 237.945 195.835 239.942 191.922C242.517 186.877 244.992 180.56 244.992 180.56C244.992 180.56 245.232 182.109 245.971 184.652C246.41 186.162 247.368 187.81 248.106 189.419C247.507 190.253 247.148 190.73 247.148 190.73L247.168 190.75C246.689 191.386 246.15 192.061 245.591 192.737C243.555 195.16 241.12 197.921 240.8 198.716C240.421 199.649 240.501 200.344 241.239 200.901C241.778 201.298 242.737 201.377 243.755 201.298C245.591 201.179 246.869 200.722 247.508 200.444C248.506 200.086 249.644 199.55 250.742 198.755C252.738 197.286 253.956 195.2 253.836 192.419C253.776 190.889 253.277 189.38 252.658 187.95C252.838 187.691 253.018 187.433 253.197 187.155C256.351 182.566 258.787 177.521 258.787 177.521C258.787 177.521 259.026 179.071 259.765 181.613C260.144 182.904 260.903 184.315 261.582 185.705C258.627 188.109 256.771 190.89 256.132 192.717C254.954 196.094 255.872 197.623 257.609 197.981C258.387 198.14 259.505 197.782 260.344 197.425C261.382 197.087 262.639 196.511 263.797 195.657C265.794 194.187 267.71 192.141 267.61 189.38C267.551 188.109 267.211 186.857 266.752 185.666C269.267 184.633 272.521 184.037 276.654 184.533C285.537 185.566 287.294 191.088 286.955 193.392C286.615 195.697 284.759 196.968 284.14 197.365C283.521 197.743 283.321 197.882 283.381 198.16C283.461 198.577 283.741 198.557 284.28 198.478C285.018 198.358 288.951 196.591 289.111 192.34C289.35 186.877 284.14 180.918 274.897 180.977ZM206.384 203.959C203.449 207.157 199.317 208.369 197.56 207.336C195.664 206.244 196.402 201.536 200.016 198.139C202.212 196.074 205.066 194.167 206.943 192.995C207.362 192.736 208.001 192.359 208.759 191.902C208.879 191.823 208.959 191.783 208.959 191.783C209.099 191.703 209.259 191.604 209.418 191.505C210.756 196.352 209.478 200.602 206.384 203.959ZM227.844 189.439C226.826 191.922 224.67 198.298 223.372 197.941C222.254 197.643 221.576 192.816 223.153 188.049C223.951 185.645 225.648 182.785 226.646 181.672C228.263 179.884 230.02 179.288 230.459 180.023C230.978 180.977 228.483 187.89 227.844 189.439ZM245.551 197.861C245.112 198.08 244.713 198.239 244.533 198.12C244.393 198.04 244.713 197.742 244.713 197.742C244.713 197.742 246.929 195.378 247.807 194.286C248.306 193.651 248.905 192.916 249.544 192.081V192.319C249.544 195.18 246.789 197.087 245.551 197.861ZM259.206 194.762C258.886 194.524 258.927 193.789 260.004 191.485C260.424 190.571 261.382 189.042 263.039 187.592C263.238 188.188 263.358 188.763 263.338 189.3C263.318 192.875 260.763 194.206 259.206 194.762Z" fill="white"/>
</g>
<defs>
<clipPath id="clip0">
<rect width="73.8208" height="97.634" fill="white" transform="translate(250.346)"/>
</clipPath>
<clipPath id="clip1">
<rect width="88.2461" height="88.2461" fill="white" transform="translate(0 5.81152)"/>
</clipPath>
<clipPath id="clip2">
<rect width="71.4395" height="97.634" fill="white" transform="translate(133.576)"/>
</clipPath>
<clipPath id="clip3">
<rect width="80.0098" height="80.0098" fill="white" transform="translate(55.7909 135.99)"/>
</clipPath>
<clipPath id="clip4">
<rect width="102.211" height="76.2766" fill="white" transform="translate(186.942 137.153)"/>
</clipPath>
</defs>
</svg>
