<svg width="43" height="44" viewBox="0 0 43 44" fill="none" xmlns="http://www.w3.org/2000/svg">
<g clip-path="url(#clip0)">
<path opacity="0.2" d="M0 0.875H42.6133V43.4883H0V0.875Z" fill="white"/>
<path d="M11.2047 36.4857L14.4656 34.5122C15.0948 35.6276 15.6671 36.5715 17.0399 36.5715C18.3557 36.5715 19.1855 36.0568 19.1855 34.0546V20.4386H23.19V34.1112C23.19 38.2588 20.7587 40.1468 17.2115 40.1468C14.008 40.1468 12.1485 38.4877 11.2045 36.4854L11.2047 36.4857ZM25.3651 36.0566L28.6257 34.1688C29.4841 35.5705 30.5997 36.6002 32.5733 36.6002C34.2327 36.6002 35.2907 35.7706 35.2907 34.6264C35.2907 33.2534 34.2037 32.767 32.373 31.9664L31.3721 31.5369C28.4829 30.3073 26.5665 28.7626 26.5665 25.5016C26.5665 22.4981 28.8548 20.2096 32.4305 20.2096C34.9763 20.2096 36.807 21.0965 38.1227 23.4134L35.0046 25.4159C34.3179 24.186 33.5745 23.6997 32.4303 23.6997C31.2574 23.6997 30.5137 24.4435 30.5137 25.4159C30.5137 26.6172 31.2574 27.1038 32.9736 27.8475L33.9747 28.2765C37.3788 29.7355 39.2952 31.2228 39.2952 34.5693C39.2952 38.1738 36.4634 40.1473 32.659 40.1473C28.9405 40.1473 26.5377 38.3739 25.365 36.0568" fill="white"/>
</g>
<defs>
<clipPath id="clip0">
<rect width="42.6133" height="42.6133" fill="white" transform="translate(0 0.875)"/>
</clipPath>
</defs>
</svg>
