<svg width="55" height="42" viewBox="0 0 55 42" fill="none" xmlns="http://www.w3.org/2000/svg">
<g clip-path="url(#clip0)">
<path d="M46.8445 24.0288C44.9413 24.0395 43.2933 24.4943 41.9111 25.1715C41.4008 24.1665 40.8904 23.2883 40.8055 22.6324C40.7098 21.8707 40.5928 21.4051 40.7098 20.4954C40.8266 19.5855 41.3582 18.2948 41.3582 18.189C41.3475 18.0938 41.2412 17.6283 40.1462 17.6177C39.0511 17.6071 38.1048 17.8293 37.9984 18.1149C37.8921 18.4006 37.6795 19.0565 37.5412 19.7336C37.3499 20.728 35.351 24.251 34.2133 26.1024C33.8412 25.383 33.5222 24.7482 33.4583 24.2403C33.3627 23.4787 33.2457 23.0131 33.3627 22.1034C33.4797 21.1934 34.0113 19.9028 34.0113 19.797C34.0007 19.7018 33.8944 19.2363 32.7993 19.2258C31.7041 19.2152 30.7579 19.4373 30.6516 19.723C30.5453 20.0086 30.4283 20.6857 30.1944 21.3416C29.971 21.9976 27.3129 27.8797 26.6218 29.4137C26.271 30.1966 25.9627 30.8208 25.7394 31.244C25.5161 31.6672 25.7287 31.2757 25.7075 31.318C25.5161 31.6777 25.4098 31.8788 25.4098 31.8788V31.8894C25.2609 32.1539 25.1014 32.4077 25.0269 32.4077C24.9737 32.4077 24.8674 31.6989 25.0482 30.7257C25.4416 28.6838 26.3985 25.4995 26.3879 25.3831C26.3879 25.3302 26.5686 24.7694 25.7712 24.4838C24.995 24.1982 24.7187 24.6743 24.6548 24.6743C24.591 24.6743 24.5378 24.8435 24.5378 24.8435C24.5378 24.8435 25.399 21.2572 22.8898 21.2572C21.3162 21.2572 19.1472 22.9605 18.0734 24.5157C17.3929 24.886 15.9469 25.6687 14.4158 26.5046C13.8311 26.822 13.225 27.1605 12.6509 27.4673L12.534 27.3402C9.49317 24.1134 3.86867 21.8283 4.10258 17.4907C4.18764 15.9144 4.74052 11.7567 14.9051 6.72087C23.2302 2.59489 29.8967 3.72689 31.0555 6.24479C32.7035 9.8418 27.4937 16.528 18.8391 17.4907C15.5431 17.861 13.8099 16.5915 13.3741 16.1154C12.9169 15.6182 12.8531 15.597 12.683 15.6922C12.4065 15.8403 12.5767 16.2847 12.683 16.5492C12.9382 17.2157 14.0014 18.4006 15.8089 18.993C17.393 19.5114 21.2633 19.797 25.9415 17.9985C31.1832 15.9779 35.2767 10.3708 34.0752 5.68408C32.8525 0.912759 24.8995 -0.652997 17.3825 2.00244C12.9061 3.58935 8.05781 6.06494 4.5704 9.31283C0.423797 13.1637 -0.235407 16.528 0.0410332 17.9245C1.00868 22.9074 7.90895 26.1553 10.6734 28.5568C10.5351 28.6308 10.4076 28.7048 10.2906 28.7684C8.90839 29.4454 3.64539 32.1856 2.32698 35.0842C0.838458 38.3638 2.56089 40.7232 3.70919 41.0405C7.26038 42.0244 10.8966 40.2577 12.8636 37.3483C14.8199 34.439 14.5861 30.6621 13.6823 28.9377L13.6503 28.8742L14.7348 28.2394C15.4366 27.8268 16.1277 27.446 16.7337 27.1179C16.3936 28.0383 16.1489 29.128 16.0214 30.7149C15.8726 32.577 16.6381 34.989 17.6482 35.9412C18.0947 36.3536 18.6263 36.3643 18.9559 36.3643C20.1255 36.3643 20.6571 35.4015 21.2419 34.2484C21.9649 32.8414 22.6028 31.2121 22.6028 31.2121C22.6028 31.2121 21.8054 35.6238 23.985 35.6238C24.7825 35.6238 25.5799 34.5976 25.9414 34.0686V34.0792C25.9414 34.0792 25.9626 34.0474 26.0052 33.9734C26.0498 33.9077 26.0923 33.8407 26.1328 33.7725V33.7513C26.4517 33.2012 27.1641 31.9422 28.2273 29.8581C29.5988 27.1709 30.9173 23.8066 30.9173 23.8066C30.9173 23.8066 31.0449 24.6318 31.4383 25.986C31.6721 26.7902 32.1824 27.6681 32.5758 28.5251C32.2569 28.9694 32.0655 29.2234 32.0655 29.2234L32.0761 29.234C31.8211 29.5725 31.5339 29.9324 31.2363 30.2919C30.1518 31.5826 28.8546 33.0533 28.6845 33.4765C28.4825 33.9736 28.525 34.3439 28.9184 34.6402C29.2055 34.8518 29.7159 34.894 30.2581 34.8518C31.2363 34.7882 31.9167 34.545 32.257 34.3968C32.7886 34.2063 33.3946 33.9207 33.9794 33.4975C35.0426 32.7147 35.6912 31.6039 35.6274 30.1228C35.5955 29.3082 35.3297 28.5041 35.0001 27.7424C35.0958 27.6049 35.1916 27.4672 35.2872 27.3192C36.9671 24.8753 38.2642 22.1882 38.2642 22.1882C38.2642 22.1882 38.3918 23.0134 38.7852 24.3676C38.9871 25.0552 39.3913 25.8065 39.7528 26.547C38.1792 27.8271 37.1904 29.3083 36.8501 30.2816C36.2228 32.0801 36.7119 32.8947 37.6369 33.0851C38.0515 33.1698 38.647 32.9793 39.0935 32.7889C39.6463 32.6091 40.3162 32.3021 40.933 31.8473C41.9962 31.0645 43.0169 29.9748 42.9637 28.5042C42.9318 27.8272 42.7511 27.1606 42.5065 26.5259C43.8462 25.9757 45.5792 25.6584 47.7802 25.9229C52.5116 26.473 53.4472 29.4141 53.2666 30.6413C53.0858 31.8686 52.097 32.5456 51.7673 32.7572C51.4377 32.9582 51.3314 33.0323 51.3633 33.1803C51.4058 33.4026 51.5547 33.3919 51.8417 33.3497C52.2351 33.2861 54.3297 32.3447 54.4147 30.0808C54.5423 27.171 51.7673 23.9972 46.8445 24.0288ZM10.3544 36.2692C8.79144 37.9725 6.59055 38.6179 5.6549 38.0677C4.64483 37.4859 5.03812 34.9785 6.96268 33.1694C8.13223 32.0692 9.65265 31.0536 10.6521 30.4294C10.8754 30.2918 11.2156 30.0909 11.6196 29.8475C11.6834 29.8053 11.726 29.784 11.726 29.784C11.8004 29.7417 11.8854 29.6888 11.9705 29.6359C12.6829 32.2173 12.0024 34.4813 10.3544 36.2692ZM21.7841 28.5357C21.2419 29.8581 20.0936 33.2541 19.4025 33.0637C18.807 32.905 18.4456 30.3342 19.2854 27.7951C19.7107 26.5149 20.6145 24.9915 21.1461 24.399C22.0074 23.4468 22.943 23.1295 23.177 23.5209C23.4534 24.0288 22.1244 27.7105 21.7841 28.5357ZM31.215 33.0213C30.9811 33.1378 30.7685 33.2223 30.6728 33.159C30.5983 33.1167 30.7683 32.958 30.7683 32.958C30.7683 32.958 31.9485 31.699 32.4164 31.1171C32.6822 30.7787 33.0011 30.3873 33.3414 29.9428V30.0698C33.3415 31.5931 31.8742 32.6087 31.215 33.0213ZM38.4874 31.3709C38.3173 31.244 38.3387 30.8525 38.9127 29.6253C39.1361 29.1387 39.6463 28.3241 40.5288 27.5518C40.6351 27.8691 40.699 28.1758 40.6883 28.4616C40.6778 30.3659 39.3168 31.0747 38.4874 31.3709Z" fill="white"/>
</g>
<defs>
<clipPath id="clip0">
<rect width="54.4375" height="40.625" fill="white" transform="translate(0 0.6875)"/>
</clipPath>
</defs>
</svg>
