<svg width="104" height="77" viewBox="0 0 104 77" fill="none" xmlns="http://www.w3.org/2000/svg">
<g clip-path="url(#clip0)">
<path d="M88.8969 43.9771C85.3235 43.9972 82.2293 44.8511 79.6341 46.1226C78.6759 44.2355 77.7176 42.5866 77.5581 41.3553C77.3785 39.9251 77.1589 39.0509 77.3785 37.3428C77.5979 35.6343 78.596 33.211 78.596 33.0123C78.5759 32.8336 78.3762 31.9596 76.3202 31.9397C74.2642 31.9198 72.4873 32.337 72.2877 32.8733C72.0881 33.4096 71.6888 34.6412 71.4293 35.9124C71.07 37.7796 67.3169 44.3942 65.1809 47.8704C64.4822 46.5196 63.8833 45.3278 63.7633 44.3742C63.5838 42.9442 63.364 42.07 63.5838 40.3619C63.8034 38.6534 64.8016 36.2302 64.8016 36.0316C64.7816 35.8528 64.582 34.9788 62.526 34.959C60.4696 34.9391 58.6931 35.3562 58.4935 35.8926C58.2938 36.4289 58.0742 37.7002 57.6351 38.9317C57.2156 40.1633 52.2249 51.2075 50.9273 54.0877C50.2685 55.5576 49.6898 56.7296 49.2704 57.5241C48.8511 58.3187 49.2504 57.5837 49.2105 57.6632C48.8511 58.3385 48.6515 58.716 48.6515 58.716V58.736C48.372 59.2326 48.0726 59.7091 47.9326 59.7091C47.8328 59.7091 47.6332 58.3783 47.9726 56.551C48.7112 52.7171 50.5079 46.7383 50.4881 46.5198C50.4881 46.4205 50.8273 45.3675 49.33 44.8314C47.8727 44.2951 47.3539 45.189 47.2339 45.189C47.1141 45.189 47.0143 45.5068 47.0143 45.5068C47.0143 45.5068 48.6313 38.7732 43.9201 38.7732C40.9655 38.7732 36.8931 41.9713 34.8768 44.8912C33.5992 45.5864 30.8842 47.0562 28.0095 48.6256C26.9116 49.2215 25.7737 49.8571 24.6957 50.4332L24.4763 50.1944C18.7669 44.136 8.20644 39.8454 8.64562 31.7013C8.80533 28.7416 9.8434 20.9352 28.9282 11.4801C44.5593 3.73324 57.0761 5.85865 59.2519 10.5862C62.3461 17.3399 52.5642 29.8937 36.3146 31.7013C30.126 32.3966 26.8719 30.0129 26.0536 29.119C25.1952 28.1854 25.0754 28.1457 24.756 28.3245C24.2369 28.6026 24.5563 29.4369 24.756 29.9335C25.2351 31.1849 27.2314 33.4096 30.6251 34.522C33.5994 35.4953 40.8661 36.0316 49.6498 32.6548C59.4916 28.8608 67.1774 18.3331 64.9215 9.53344C62.6258 0.574911 47.6935 -2.36492 33.5796 2.62087C25.175 5.60043 16.0719 10.2485 9.52399 16.3467C1.73842 23.5771 0.500713 29.8937 1.01975 32.5157C2.83658 41.8715 15.7924 47.9697 20.9828 52.4788C20.7232 52.6176 20.4837 52.7566 20.2641 52.876C17.6689 54.1471 7.78721 59.292 5.3118 64.7345C2.51698 70.8922 5.75099 75.322 7.90699 75.9179C14.5746 77.7652 21.402 74.448 25.0951 68.9855C28.7681 63.523 28.3291 56.4316 26.6323 53.1938L26.5722 53.0747L28.6084 51.8828C29.9262 51.1082 31.2238 50.3931 32.3615 49.7771C31.7229 51.5052 31.2635 53.5512 31.0242 56.5308C30.7447 60.027 32.182 64.5557 34.0785 66.3434C34.9169 67.1179 35.9151 67.138 36.5339 67.138C38.7299 67.138 39.728 65.3302 40.826 63.1652C42.1835 60.5234 43.3813 57.4643 43.3813 57.4643C43.3813 57.4643 41.884 65.7475 45.9765 65.7475C47.4737 65.7475 48.9709 63.8207 49.6496 62.8275V62.8474C49.6496 62.8474 49.6896 62.7878 49.7694 62.6488C49.8532 62.5255 49.9331 62.3997 50.009 62.2716V62.2318C50.6079 61.1989 51.9454 58.8351 53.9417 54.922C56.5167 49.8766 58.9923 43.56 58.9923 43.56C58.9923 43.56 59.2319 45.1093 59.9705 47.6519C60.4095 49.1617 61.3677 50.8102 62.1064 52.4192C61.5075 53.2534 61.1481 53.7304 61.1481 53.7304L61.1681 53.7502C60.6892 54.3859 60.15 55.0614 59.5912 55.7366C57.555 58.16 55.1195 60.9212 54.8001 61.7158C54.4208 62.6492 54.5007 63.3444 55.2393 63.9008C55.7783 64.298 56.7365 64.3773 57.7546 64.298C59.5912 64.1787 60.8689 63.722 61.5077 63.4437C62.5058 63.0862 63.6437 62.5499 64.7417 61.7553C66.738 60.2856 67.9557 58.1999 67.836 55.419C67.7761 53.8895 67.277 52.3798 66.6581 50.9496C66.8378 50.6914 67.0177 50.433 67.1971 50.1551C70.3513 45.5664 72.7868 40.5212 72.7868 40.5212C72.7868 40.5212 73.0263 42.0706 73.765 44.6131C74.1441 45.9043 74.9029 47.3148 75.5816 48.7052C72.6271 51.1088 70.7705 53.8897 70.1317 55.7171C68.9539 59.094 69.8722 60.6235 71.609 60.981C72.3873 61.1399 73.5054 60.7824 74.3437 60.4248C75.3818 60.0872 76.6394 59.5109 77.7975 58.657C79.7938 57.187 81.7102 55.1411 81.6104 52.38C81.5505 51.1088 81.2112 49.8573 80.752 48.6655C83.2674 47.6326 86.5211 47.0367 90.6537 47.5333C99.5372 48.5662 101.294 54.0883 100.955 56.3925C100.615 58.6969 98.7589 59.968 98.1398 60.3652C97.5209 60.7426 97.3213 60.8819 97.3812 61.1598C97.4611 61.5771 97.7405 61.5571 98.2795 61.4778C99.0182 61.3584 102.951 59.5908 103.111 55.3401C103.35 49.8768 98.1398 43.9177 88.8969 43.9771ZM20.3839 66.9594C17.4493 70.1574 13.317 71.3691 11.5602 70.3362C9.66374 69.2437 10.4022 64.536 14.0157 61.1393C16.2116 59.0735 19.0663 57.1666 20.9428 55.9946C21.3621 55.7364 22.0009 55.3592 22.7595 54.9021C22.8792 54.8229 22.9591 54.7829 22.9591 54.7829C23.0988 54.7035 23.2585 54.6042 23.4182 54.5049C24.7558 59.3516 23.4781 63.6024 20.3839 66.9594ZM41.8441 52.439C40.826 54.922 38.67 61.2982 37.3724 60.9407C36.2543 60.6427 35.5757 55.8159 37.1526 51.0486C37.9511 48.6449 39.648 45.7847 40.6461 44.6721C42.2633 42.8844 44.0199 42.2885 44.4593 43.0234C44.9783 43.9771 42.4829 50.8897 41.8441 52.439ZM59.5513 60.8612C59.1121 61.0799 58.7129 61.2386 58.5332 61.1197C58.3934 61.0402 58.7127 60.7423 58.7127 60.7423C58.7127 60.7423 60.9285 58.3785 61.8069 57.286C62.306 56.6505 62.9049 55.9156 63.5437 55.0811V55.3195C63.5439 58.1796 60.789 60.0866 59.5513 60.8612ZM73.2058 57.7625C72.8864 57.5241 72.9265 56.7892 74.0043 54.485C74.4237 53.5713 75.3818 52.0417 77.0387 50.5917C77.2383 51.1876 77.3583 51.7635 77.3381 52.3C77.3184 55.8754 74.7631 57.2063 73.2058 57.7625Z" fill="white"/>
</g>
<defs>
<clipPath id="clip0">
<rect width="102.211" height="76.2766" fill="white" transform="translate(0.942261 0.152588)"/>
</clipPath>
</defs>
</svg>
