<svg width="75" height="98" viewBox="0 0 75 98" fill="none" xmlns="http://www.w3.org/2000/svg">
<g clip-path="url(#clip0)">
<path opacity="0.2" d="M65.5351 89.9966L37.2296 97.6182L8.92366 89.9966L2.39185 19.2329H72.0677L65.5351 89.9966Z" fill="white"/>
<path d="M21.1651 8.83623V4.62438H27.3102V0.015625H16.5563V13.0418H27.3102V8.83623H21.1651ZM38.3645 4.62438H42.6607V0.015625H31.9058V4.62438C33.3447 6.06325 34.0951 6.75192 36.1761 8.83291C34.9596 8.83291 31.9058 8.83727 31.9058 8.83706V13.0418H42.6607V8.83623L38.3645 4.62438ZM53.6076 4.62438H57.9036V0.015625H47.1483V4.62438C48.5872 6.06325 49.338 6.75192 51.419 8.83291C50.2029 8.83291 47.1483 8.83727 47.1483 8.83706V13.0418H57.9038V8.83623L53.6076 4.62438Z" fill="white"/>
<path d="M37.2042 42.6582L16.9451 51.0956L17.6169 59.4492L37.2042 51.0744L58.0401 42.1661L58.9039 33.6206L37.2042 42.6582Z" fill="white"/>
<path d="M16.9449 51.0959L17.6168 59.4495L37.2041 51.0747V42.6584L16.9449 51.0959Z" fill="white"/>
<path d="M58.9041 33.6213L37.2043 42.6587V51.0749L58.0402 42.1666L58.9041 33.6213Z" fill="white"/>
<path d="M16.976 51.0957L17.6481 59.4494L47.7023 59.5452L47.03 70.6832L37.1404 73.4675L27.6336 71.0671L27.0576 64.1537H18.2241L19.3764 77.5002L37.2364 82.781L54.9996 77.596L57.3042 51.0957H16.976Z" fill="white"/>
<path d="M37.2043 51.0957H16.9451L17.6169 59.4494L37.2043 59.5119V51.0957ZM37.2043 73.4409L37.1082 73.4677L27.6027 71.0673L27.0267 64.1539H18.1934L19.3455 77.5004L37.2043 82.7812V73.4409Z" fill="white"/>
<path d="M15.1205 33.6213H58.904L58.0401 42.1668H16.1766L15.1205 33.6213Z" fill="white"/>
<path opacity="0.05" d="M37.2043 33.6213H15.1205L16.1766 42.1668H37.2043V33.6213Z" fill="white"/>
</g>
<defs>
<clipPath id="clip0">
<rect width="73.8208" height="97.634" fill="white" transform="translate(0.345764)"/>
</clipPath>
</defs>
</svg>
