<svg width="73" height="98" viewBox="0 0 73 98" fill="none" xmlns="http://www.w3.org/2000/svg">
<g clip-path="url(#clip0)">
<path opacity="0.2" d="M69.6652 19.1316L63.382 89.5196L35.1387 97.3494L6.97322 89.5304L0.696533 19.1316H69.6652Z" fill="white"/>
<path d="M22.9664 42.1559H35.1808V33.5217H13.5305L13.737 35.8381L15.8592 59.6315H35.1808V50.9973H23.7556L22.9664 42.1559ZM24.9124 63.9487H16.245L17.4546 77.5056L35.141 82.4151L35.1808 82.4043V73.4212L35.1429 73.4312L25.5272 70.8347L24.9124 63.9487Z" fill="white"/>
<path d="M7.11322 0H11.501V4.33504H15.5148V0H19.9029V13.1276H15.5151V8.73173H11.5013V13.1276H7.11349V0H7.11322ZM25.6727 4.35343H21.8105V0H33.9259V4.35343H30.0612V13.1276H25.6735V4.35343H25.6732H25.6727ZM35.8486 0H40.4237L43.238 4.61269L46.0497 0H50.6267V13.1276H46.2567V6.62084L43.238 11.2884H43.1623L40.1417 6.62084V13.1276H35.8486V0ZM52.8103 0H57.1994V8.7885H63.3698V13.1276H52.81V0H52.8103Z" fill="white"/>
<path d="M35.1511 59.6315H45.7831L44.7806 70.8293L35.1508 73.4285V82.4111L52.8514 77.5056L52.9811 76.0468L55.0104 53.3159L55.221 50.9973H35.1511V59.6315ZM35.1511 42.1348V42.1559H56.0066L56.1796 40.2153L56.5733 35.8381L56.7795 33.5217H35.1511V42.135V42.1348Z" fill="white"/>
</g>
<defs>
<clipPath id="clip0">
<rect width="71.4395" height="97.634" fill="white" transform="translate(0.576233)"/>
</clipPath>
</defs>
</svg>
