<svg width="81" height="81" viewBox="0 0 81 81" fill="none" xmlns="http://www.w3.org/2000/svg">
<g clip-path="url(#clip0)">
<path opacity="0.2" d="M0.790863 0.990234H80.8006V81H0.790863V0.990234Z" fill="white"/>
<path d="M21.8285 67.8522L27.9512 64.1467C29.1325 66.241 30.2071 68.0131 32.7846 68.0131C35.2552 68.0131 36.8132 67.0467 36.8132 63.2875V37.7225H44.3319V63.3938C44.3319 71.1813 39.767 74.7261 33.1068 74.7261C27.092 74.7261 23.6006 71.611 21.8282 67.8515L21.8285 67.8522ZM48.4158 67.0464L54.5378 63.5019C56.1496 66.1338 58.2442 68.0672 61.9497 68.0672C65.0654 68.0672 67.0519 66.5095 67.0519 64.3611C67.0519 61.7833 65.011 60.8701 61.5737 59.3667L59.6944 58.5604C54.2697 56.2517 50.6714 53.3513 50.6714 47.2287C50.6714 41.5893 54.9679 37.2925 61.6815 37.2925C66.4615 37.2925 69.8988 38.9577 72.3691 43.3079L66.5146 47.0677C65.2254 44.7584 63.8296 43.8455 61.6812 43.8455C59.4791 43.8455 58.0826 45.2419 58.0826 47.0677C58.0826 49.3233 59.4791 50.2369 62.7013 51.6333L64.5809 52.4387C70.9723 55.1781 74.5706 57.9706 74.5706 64.2539C74.5706 71.0216 69.2537 74.7271 62.1106 74.7271C55.1288 74.7271 50.6174 71.3973 48.4155 67.0467" fill="white"/>
</g>
<defs>
<clipPath id="clip0">
<rect width="80.0098" height="80.0098" fill="white" transform="translate(0.790863 0.990234)"/>
</clipPath>
</defs>
</svg>
